<svg width="80" height="80" viewBox="0 0 80 80" fill="none" xmlns="http://www.w3.org/2000/svg">
<path d="M51.875 6.01562C36.3669 6.01562 23.75 18.6325 23.75 34.1406C23.75 36.5478 24.0481 38.8972 24.6342 41.1719H44.5312V61.2873C46.9181 61.9313 49.3919 62.2656 51.875 62.2656C67.3831 62.2656 80 49.6488 80 34.1406C80 18.6325 67.3831 6.01562 51.875 6.01562ZM72.9688 31.7969V36.4844H68.2812V31.7969H72.9688ZM54.2188 24.7656V31.7969H61.25V36.4844H49.5312V24.7656H54.2188ZM49.5312 17.7344V13.0469H54.2188V17.7344H49.5312ZM49.5312 50.5469H54.2188V55.2344H49.5312V50.5469ZM35.4688 36.4844H30.7812V31.7969H35.4688V36.4844Z" fill="#00D689"/>
<path d="M16.4062 38.8281C16.4062 34.9511 13.252 31.7969 9.37499 31.7969H7.03124C6.39312 31.7969 5.7964 31.5448 5.35124 31.0872C4.90624 30.6298 4.67093 30.0256 4.68843 29.3855C4.72281 28.1305 5.81765 27.1094 7.12874 27.1094H14.0625C17.9395 27.1094 21.0937 23.9552 21.0937 20.0781V13.0469H16.4062V20.0781C16.4062 21.3705 15.3548 22.4219 14.0625 22.4219H7.12874C3.30265 22.4219 0.105931 25.4883 0.00280617 29.2572C-0.0496938 31.1731 0.656556 32.9841 1.99156 34.3561C3.32687 35.7286 5.11671 36.4844 7.03124 36.4844H9.37499C10.6673 36.4844 11.7187 37.5358 11.7187 38.8281V41.1719H16.4062V38.8281Z" fill="#00D689"/>
<path d="M36.6664 69.2969C38.6138 67.5791 39.8438 65.0666 39.8438 62.2656V45.8594H11.7188V50.5469H7.03125C3.15422 50.5469 0 53.7011 0 57.5781C0 61.4552 3.15422 64.6094 7.03125 64.6094H7.22766H12.0141C12.4886 66.453 13.5112 68.0753 14.8961 69.2969H0V73.9844H51.5625V69.2969H36.6664ZM4.6875 57.5781C4.6875 56.2858 5.73891 55.2344 7.03125 55.2344H11.7188V59.9219H7.03125C5.73891 59.9219 4.6875 58.8705 4.6875 57.5781Z" fill="#00D689"/>
</svg>
