<svg width="80" height="80" viewBox="0 0 80 80" fill="none" xmlns="http://www.w3.org/2000/svg">
<path d="M42.3436 42.342V0C19.6632 1.18964 1.1912 19.6615 0.0015564 42.342H42.3436ZM32.969 35.3111H28.2816V30.6237H32.969V35.3111ZM18.907 21.2491H23.5943V25.9364H18.907V21.2491ZM30.6253 20.2787L33.9394 23.5928L21.2507 36.2815L17.9366 32.9674L30.6253 20.2787Z" fill="#00D689"/>
<path d="M42.3436 47.0293H14.3091C15.4512 61.9656 27.4074 73.9218 42.3437 75.0639V47.0293H42.3436Z" fill="#00D689"/>
<path d="M47.0309 9.37463C47.0309 9.87805 47.0309 80.5502 47.0309 79.9967C65.3226 78.7819 79.9983 63.046 79.9983 44.4516C79.9983 25.8557 65.327 10.5854 47.0309 9.37463ZM61.0928 42.342C64.9698 42.342 68.1238 45.496 68.1238 49.373C68.1238 52.4244 66.1585 55.0015 63.4365 55.9723V61.0913H58.7492V55.9723C56.0271 55.0015 54.0618 52.4244 54.0618 49.373H58.7492C58.7492 50.6661 59.7997 51.7166 61.0928 51.7166C62.3859 51.7166 63.4365 50.6661 63.4365 49.373C63.4365 48.0799 62.3859 47.0293 61.0928 47.0293C57.2158 47.0293 54.0618 43.8754 54.0618 39.9984C54.0618 36.9469 56.0271 34.3699 58.7492 33.3991V28.2801H63.4365V33.3991C66.1585 34.3699 68.1238 36.9469 68.1238 39.9984H63.4365C63.4365 38.7053 62.3859 37.6547 61.0928 37.6547C59.7997 37.6547 58.7492 38.7053 58.7492 39.9984C58.7492 41.2915 59.7997 42.342 61.0928 42.342Z" fill="#00D689"/>
</svg>
