<svg width="80" height="80" viewBox="0 0 80 80" fill="none" xmlns="http://www.w3.org/2000/svg">
<g clip-path="url(#clip0_13_83)">
<path d="M21.8542 68.3401V61.0151C27.1978 59.9262 31.2292 55.1923 31.2292 49.5336C31.2292 43.0722 25.9741 37.8148 19.5105 37.8148C13.0469 37.8148 7.79175 43.0722 7.79175 49.5336C7.79175 55.1923 11.8232 59.9262 17.1667 61.0151V68.3401C15.2024 66.8533 12.7842 65.9375 10.1355 65.9375H3.10425V68.2812C3.10425 74.7426 8.3594 80 14.823 80C15.4007 80 24.7767 80 24.198 80C30.6616 80 35.9167 74.7426 35.9167 68.2812V65.9375H28.8855C26.2367 65.9375 23.8186 66.8533 21.8542 68.3401ZM17.1667 47.1898H21.8542V51.8773H17.1667V47.1898Z" fill="#00D689"/>
<path d="M59.3542 49.5925V42.2651C64.6978 41.1762 68.7292 36.4423 68.7292 30.7836C68.7292 24.3222 63.4741 19.0648 57.0105 19.0648C50.5469 19.0648 45.2917 24.3222 45.2917 30.7836C45.2917 36.4423 49.3232 41.1762 54.6667 42.2651V49.5925C52.7024 48.1056 50.2842 47.1898 47.6355 47.1898H40.6042V49.5336C40.6042 55.995 45.8594 61.2523 52.323 61.2523H54.6667V68.3403C52.7024 66.8534 50.2842 65.9376 47.6355 65.9376H40.6042V68.2814C40.6042 74.7428 45.8594 80.0001 52.323 80.0001C52.9007 80.0001 62.2767 80.0001 61.698 80.0001C68.1616 80.0001 73.4167 74.7428 73.4167 68.2814V65.9376H66.3855C63.7367 65.9376 61.3186 66.8534 59.3542 68.3403V61.2523H61.698C68.1616 61.2523 73.4167 55.995 73.4167 49.5336V47.1898H66.3855C63.7367 47.1898 61.3186 48.1056 59.3542 49.5925ZM54.6667 28.4398H59.3542V33.1273H54.6667V28.4398Z" fill="#00D689"/>
<path d="M19.506 19.0648H19.5105H19.515C20.806 19.0648 21.8588 20.1177 21.8588 21.4062C21.8588 22.6994 20.806 23.7523 19.515 23.7523C19.5105 23.7523 19.5105 23.7523 19.5105 23.7523C18.2258 23.7523 17.1713 22.7119 17.1713 21.4109H12.4838C12.4838 24.2756 14.21 26.9688 17.1724 28.0153L17.1758 33.1297L21.8633 33.1252L21.8599 28.0063C24.5816 27.0334 26.5463 24.4545 26.5463 21.4019C26.5371 17.5269 23.3877 14.3775 19.515 14.3775H19.5105C19.506 14.3775 19.506 14.3775 19.506 14.3775C18.215 14.3775 17.1622 13.3247 17.1622 12.0361C17.1622 10.743 18.215 9.69 19.506 9.69H19.5105C20.7952 9.69 21.8497 10.7305 21.8497 12.0314H26.5372C26.5372 9.17344 24.818 6.47703 21.8486 5.42703L21.8452 0L17.1577 0.00453125L17.1611 5.43594C14.4394 6.40875 12.4747 8.98766 12.4747 12.0403C12.4838 15.9153 15.6333 19.0648 19.506 19.0648Z" fill="#00D689"/>
<path d="M54.6667 5.00232H59.3542V14.3773H54.6667V5.00232Z" fill="#00D689"/>
<path d="M37.1198 14.2133L40.4335 10.8995L47.061 17.527L43.7473 20.8407L37.1198 14.2133Z" fill="#00D689"/>
<path d="M66.9445 17.53L73.5719 10.9026L76.8856 14.2163L70.2582 20.8438L66.9445 17.53Z" fill="#00D689"/>
</g>
<defs>
<clipPath id="clip0_13_83">
<rect width="80" height="80" fill="white"/>
</clipPath>
</defs>
</svg>
