<svg width="80" height="80" viewBox="0 0 80 80" fill="none" xmlns="http://www.w3.org/2000/svg">
<path d="M54.8114 21.6481C54.4662 21.6481 54.1141 21.6605 53.7597 21.6825C53.8614 22.6719 53.9137 23.6755 53.9137 24.6913C53.9137 38.8275 43.8239 50.6505 30.468 53.3392C31.615 57.6589 33.9036 61.6106 37.1722 64.8175C41.9094 69.4655 48.1739 72.0252 54.8116 72.0252C58.1572 72.0252 61.3861 71.3855 64.4326 70.1214L75.0633 80V61.8155C78.2962 57.4595 80 52.2991 80 46.8367C80 32.9477 68.7005 21.6481 54.8114 21.6481ZM57.0995 58.5181H52.412V47.0172H57.0995V58.5181ZM54.7558 42.7305C53.4419 42.7305 52.4689 41.6566 52.412 40.3867C52.3553 39.1209 53.5298 38.043 54.7558 38.043C56.0697 38.043 57.0426 39.1169 57.0995 40.3867C57.1562 41.6524 55.9817 42.7305 54.7558 42.7305Z" fill="#00D689"/>
<path d="M24.6912 0C11.0764 0 0 11.0764 0 24.6912C0 30.0456 1.67016 35.1042 4.83922 39.3744V57.1995L15.2603 47.5163C18.2469 48.7555 21.4119 49.3825 24.6912 49.3825C38.3061 49.3825 49.3825 38.3061 49.3825 24.6912C49.3825 11.0764 38.3059 0 24.6912 0ZM27.5086 19.7691C27.4511 18.6623 26.5011 17.7439 25.3908 17.7216C24.2944 17.6983 23.3506 18.4994 23.1997 19.5823C23.1856 19.6822 23.1786 19.7848 23.1786 19.8875H18.4911C18.4911 19.5691 18.5133 19.2484 18.557 18.9345C19.0362 15.5011 22.0203 12.9642 25.4853 13.0348C29.0597 13.1069 32.0047 15.9583 32.1897 19.5261C32.2883 21.4248 31.6227 23.2288 30.3155 24.6056C29.5811 25.3791 28.677 25.9645 27.6887 26.3252V29.1141H23.0012V22.0539H25.345C25.9444 22.0539 26.5022 21.8139 26.9161 21.3781C27.3294 20.9428 27.5397 20.3714 27.5086 19.7691ZM25.345 37.8867C24.0311 37.8867 23.0581 36.8128 23.0012 35.543C22.9445 34.2772 24.1191 33.1992 25.345 33.1992C26.6589 33.1992 27.6319 34.2731 27.6887 35.543C27.7455 36.8086 26.5709 37.8867 25.345 37.8867Z" fill="#00D689"/>
</svg>
