<svg width="80" height="80" viewBox="0 0 80 80" fill="none" xmlns="http://www.w3.org/2000/svg">
<path d="M68.2844 11.7158C60.7293 4.16063 50.6844 0 40 0C29.3156 0 19.2709 4.16063 11.7158 11.7158C4.16063 19.2709 0 29.3156 0 40C0 50.6844 4.16063 60.7293 11.7158 68.2844C19.2709 75.8394 29.3156 80 40 80C50.6844 80 60.7293 75.8394 68.2844 68.2842C75.8395 60.7291 80 50.6844 80 40C80 29.3156 75.8394 19.2709 68.2844 11.7158ZM40 75.2941C20.5388 75.2941 4.70588 59.4612 4.70588 40C4.70588 31.1144 8.00784 22.9862 13.4475 16.7749L63.2251 66.5525C57.0138 71.9922 48.8858 75.2941 40 75.2941ZM66.5525 63.2251L16.7749 13.4475C22.9862 8.00784 31.1144 4.70588 40 4.70588C59.4612 4.70588 75.2941 20.5387 75.2941 40C75.2941 48.8858 71.9922 57.0138 66.5525 63.2251Z" fill="#00D689"/>
<path d="M27.6645 37.6471H14.1176V56.4706H46.4878L27.6645 37.6471ZM23.5294 47.0588V42.3529H28.2353V47.0588H23.5294Z" fill="#00D689"/>
<path d="M65.8824 55.8996V37.6471H47.6298L65.8824 55.8996Z" fill="#00D689"/>
<path d="M14.1176 24.1004V32.9412H22.9586L14.1176 24.1004Z" fill="#00D689"/>
<path d="M42.9239 32.9412H65.8823V23.5294H33.512L42.9239 32.9412Z" fill="#00D689"/>
</svg>
