<svg width="80" height="80" viewBox="0 0 80 80" fill="none" xmlns="http://www.w3.org/2000/svg">
<path d="M25.9375 30.2041V80H77.5V9.375H34.6467C35.0384 10.8822 35.3125 12.4345 35.3125 14.0625C35.3125 20.9709 31.5145 26.9514 25.9375 30.2041ZM51.1717 37.4359C48.7456 36.8522 44.6875 35.8772 44.6875 30.4688C44.6875 27.4172 46.6528 24.84 49.375 23.8692V21.0938H54.0625V23.8692C56.7847 24.84 58.75 27.4172 58.75 30.4688H54.0625C54.0625 29.1756 53.0119 28.125 51.7188 28.125C50.4256 28.125 49.375 29.1756 49.375 30.4688C49.375 32.0069 49.6725 32.2541 52.2658 32.8766C54.6919 33.4603 58.75 34.4353 58.75 39.8438C58.75 42.8953 56.7847 45.4725 54.0625 46.4433V49.2188H49.375V46.4433C46.6528 45.4725 44.6875 42.8953 44.6875 39.8438H49.375C49.375 41.1369 50.4256 42.1875 51.7188 42.1875C53.0119 42.1875 54.0625 41.1369 54.0625 39.8438C54.0625 38.3056 53.765 38.0584 51.1717 37.4359ZM44.6875 56.4062H68.125V61.0938H44.6875V56.4062ZM44.6875 65.7812H68.125V70.4688H44.6875V65.7812ZM35.3125 56.4062H40V61.0938H35.3125V56.4062ZM35.3125 65.7812H40V70.4688H35.3125V65.7812Z" fill="#00D689"/>
<path d="M16.5625 28.125C24.3291 28.125 30.625 21.8291 30.625 14.0625C30.625 6.29594 24.3291 0 16.5625 0C8.79594 0 2.5 6.29594 2.5 14.0625C2.5 21.8291 8.79594 28.125 16.5625 28.125ZM9.93406 10.7483L13.2483 7.43406L16.5625 10.7483L19.8767 7.43406L23.1909 10.7483L19.8767 14.0625L23.1909 17.3767L19.8767 20.6909L16.5625 17.3767L13.2483 20.6909L9.93406 17.3767L13.2483 14.0625L9.93406 10.7483Z" fill="#00D689"/>
</svg>
