<svg width="80" height="80" viewBox="0 0 80 80" fill="none" xmlns="http://www.w3.org/2000/svg">
<g clip-path="url(#clip0_13_75)">
<path d="M23.6377 31.6406C23.6095 31.252 23.5938 30.8614 23.5938 30.4688C23.5938 21.4223 30.9536 14.0625 40 14.0625C49.0464 14.0625 56.4062 21.4223 56.4062 30.4688C56.4062 30.8614 56.3903 31.252 56.3623 31.6406H68.125V22.2656H63.9056C63.303 19.7987 62.3303 17.477 61.0469 15.3645L64.0306 12.3808L55.7442 4.09438L52.7605 7.07812C50.648 5.79453 48.3262 4.82188 45.8594 4.21938V0H34.1406V4.21938C31.6737 4.82203 29.352 5.79469 27.2395 7.07812L24.2558 4.09438L15.9694 12.3808L18.9531 15.3645C17.6695 17.477 16.6969 19.7987 16.0944 22.2656H11.875V31.6406H23.6377Z" fill="#00D689"/>
<path d="M37.6562 55.9533C35.3192 55.3495 33.3348 53.8636 32.0756 51.875H14.0625V47.1875H30.633C30.6295 47.0834 30.625 46.9798 30.625 46.875V43.9333C27.907 42.0356 25.8502 39.3675 24.6833 36.3281H7.03125V80H37.6562V55.9533ZM32.9688 70.625H14.0625V65.9375H32.9688V70.625ZM32.9688 61.25H14.0625V56.5625H32.9688V61.25Z" fill="#00D689"/>
<path d="M55.3167 36.3281C54.1498 39.3675 52.0928 42.0356 49.375 43.9333V46.875C49.375 46.9798 49.3705 47.0834 49.367 47.1875H65.9375V51.875H47.9244C46.6652 53.8636 44.6806 55.3497 42.3438 55.9533V80H72.9688V36.3281H55.3167ZM65.9375 70.625H47.0312V65.9375H65.9375V70.625ZM65.9375 61.25H47.0312V56.5625H65.9375V61.25Z" fill="#00D689"/>
<path d="M51.7188 30.4688C51.7188 24.007 46.4617 18.75 40 18.75C33.5383 18.75 28.2812 24.007 28.2812 30.4688C28.2812 34.4389 30.3173 38.1536 33.6319 40.3058H37.6562V33.7217C34.7452 32.8792 32.8773 30.728 32.6298 30.4302L36.2355 27.4348L36.225 27.4223C36.2416 27.4417 37.9177 29.3723 40 29.3723C42.0823 29.3723 43.7584 27.4417 43.775 27.4223L43.7645 27.4348L47.3702 30.4302C47.1227 30.728 45.2548 32.8792 42.3438 33.7217V40.3058H46.3681C49.6827 38.1536 51.7188 34.4389 51.7188 30.4688Z" fill="#00D689"/>
<path d="M40 51.5625C42.5847 51.5625 44.6875 49.4597 44.6875 46.875V44.9933H35.3125V46.875C35.3125 49.4597 37.4153 51.5625 40 51.5625Z" fill="#00D689"/>
</g>
<defs>
<clipPath id="clip0_13_75">
<rect width="80" height="80" fill="white"/>
</clipPath>
</defs>
</svg>
