<svg width="38" height="40" viewBox="0 0 38 40" fill="none" xmlns="http://www.w3.org/2000/svg">
<rect y="0.646484" width="38" height="39.177" fill="url(#paint0_linear_22_5)"/>
<g clip-path="url(#clip0_22_5)">
<path d="M19.5 10.9561C16.5129 10.9561 14.0215 13.4368 14.0215 16.6043C14.0215 17.8093 14.3727 18.8838 15.0468 19.8907L19.0807 26.3803C19.2764 26.6958 19.724 26.6952 19.9193 26.3803L23.9707 19.8686C24.6303 18.9073 24.9785 17.7786 24.9785 16.6043C24.9785 13.4898 22.5209 10.9561 19.5 10.9561ZM19.5 19.1716C18.127 19.1716 17.0098 18.0198 17.0098 16.6043C17.0098 15.1887 18.127 14.0369 19.5 14.0369C20.873 14.0369 21.9902 15.1887 21.9902 16.6043C21.9902 18.0198 20.873 19.1716 19.5 19.1716Z" fill="#3B2E3F"/>
<path d="M23.3935 22.7554L20.8857 26.7977C20.2365 27.8411 18.7599 27.8377 18.1138 26.7987L15.6019 22.7564C13.3918 23.2833 12.0293 24.2483 12.0293 25.4016C12.0293 27.4029 15.8785 28.4825 19.5 28.4825C23.1215 28.4825 26.9707 27.4029 26.9707 25.4016C26.9707 24.2475 25.6064 23.2819 23.3935 22.7554Z" fill="#3B2E3F"/>
</g>
<defs>
<linearGradient id="paint0_linear_22_5" x1="19" y1="0.646484" x2="19" y2="39.8234" gradientUnits="userSpaceOnUse">
<stop stop-color="#FF9900"/>
<stop offset="1" stop-color="#FF7A00"/>
</linearGradient>
<clipPath id="clip0_22_5">
<rect width="17" height="17.5265" fill="white" transform="translate(11 10.9561)"/>
</clipPath>
</defs>
</svg>
