<svg width="278" height="258" viewBox="0 0 278 258" fill="none" xmlns="http://www.w3.org/2000/svg">
<g filter="url(#filter0_dddddd_5_36)">
<path d="M176.336 0.278198H101.658L64.3224 64.9973L101.658 129.722H176.336L213.678 64.9973L176.336 0.278198Z" fill="white"/>
<path d="M149.164 40.3047H151.273V50.6562H150.57C148.044 50.6562 145.674 51.0078 143.461 51.7109C141.273 52.4141 139.346 53.4818 137.68 54.9141C136.039 56.3203 134.75 58.1042 133.812 60.2656C132.901 62.4271 132.445 64.9661 132.445 67.8828V77.8438C132.445 79.6667 132.602 81.2552 132.914 82.6094C133.227 83.9635 133.695 85.0833 134.32 85.9688C134.945 86.8542 135.714 87.5182 136.625 87.9609C137.562 88.4036 138.643 88.625 139.867 88.625C140.883 88.625 141.82 88.3906 142.68 87.9219C143.539 87.4531 144.281 86.7891 144.906 85.9297C145.557 85.0703 146.052 84.0677 146.391 82.9219C146.729 81.776 146.898 80.526 146.898 79.1719C146.898 77.7135 146.716 76.3984 146.352 75.2266C145.987 74.0547 145.466 73.0651 144.789 72.2578C144.138 71.4245 143.344 70.7995 142.406 70.3828C141.495 69.9401 140.492 69.7188 139.398 69.7188C137.732 69.7188 136.312 70.0964 135.141 70.8516C133.995 71.5807 133.122 72.5182 132.523 73.6641C131.951 74.8099 131.664 75.9688 131.664 77.1406L128.5 73.9375C128.448 72.375 128.747 70.7604 129.398 69.0938C130.049 67.4271 131.026 65.8776 132.328 64.4453C133.63 63.013 135.258 61.8542 137.211 60.9688C139.164 60.0833 141.43 59.6406 144.008 59.6406C146.612 59.6406 148.904 60.1354 150.883 61.125C152.888 62.1146 154.568 63.4948 155.922 65.2656C157.302 67.0365 158.344 69.1068 159.047 71.4766C159.75 73.8464 160.102 76.4115 160.102 79.1719C160.102 81.9583 159.607 84.5495 158.617 86.9453C157.654 89.3151 156.286 91.3854 154.516 93.1562C152.745 94.9271 150.648 96.3073 148.227 97.2969C145.805 98.2865 143.135 98.7812 140.219 98.7812C137.224 98.7812 134.451 98.2734 131.898 97.2578C129.372 96.2161 127.159 94.7188 125.258 92.7656C123.383 90.7865 121.911 88.3776 120.844 85.5391C119.802 82.7005 119.281 79.4844 119.281 75.8906V71.0859C119.281 66.2161 120.076 61.8802 121.664 58.0781C123.279 54.276 125.466 51.0599 128.227 48.4297C131.013 45.7734 134.203 43.7552 137.797 42.375C141.391 40.9948 145.18 40.3047 149.164 40.3047Z" fill="#00D689"/>
</g>
<defs>
<filter id="filter0_dddddd_5_36" x="0" y="0" width="278" height="258" filterUnits="userSpaceOnUse" color-interpolation-filters="sRGB">
<feFlood flood-opacity="0" result="BackgroundImageFix"/>
<feColorMatrix in="SourceAlpha" type="matrix" values="0 0 0 0 0 0 0 0 0 0 0 0 0 0 0 0 0 0 127 0" result="hardAlpha"/>
<feOffset dy="64"/>
<feGaussianBlur stdDeviation="32"/>
<feColorMatrix type="matrix" values="0 0 0 0 0.209263 0 0 0 0 0.209263 0 0 0 0 0.209263 0 0 0 0.0518852 0"/>
<feBlend mode="normal" in2="BackgroundImageFix" result="effect1_dropShadow_5_36"/>
<feColorMatrix in="SourceAlpha" type="matrix" values="0 0 0 0 0 0 0 0 0 0 0 0 0 0 0 0 0 0 127 0" result="hardAlpha"/>
<feOffset dy="32"/>
<feGaussianBlur stdDeviation="16"/>
<feColorMatrix type="matrix" values="0 0 0 0 0.28606 0 0 0 0 0.28606 0 0 0 0 0.28606 0 0 0 0.0471298 0"/>
<feBlend mode="normal" in2="effect1_dropShadow_5_36" result="effect2_dropShadow_5_36"/>
<feColorMatrix in="SourceAlpha" type="matrix" values="0 0 0 0 0 0 0 0 0 0 0 0 0 0 0 0 0 0 127 0" result="hardAlpha"/>
<feOffset dy="16"/>
<feGaussianBlur stdDeviation="8"/>
<feColorMatrix type="matrix" values="0 0 0 0 0.126036 0 0 0 0 0.126036 0 0 0 0 0.126036 0 0 0 0.0527627 0"/>
<feBlend mode="normal" in2="effect2_dropShadow_5_36" result="effect3_dropShadow_5_36"/>
<feColorMatrix in="SourceAlpha" type="matrix" values="0 0 0 0 0 0 0 0 0 0 0 0 0 0 0 0 0 0 127 0" result="hardAlpha"/>
<feOffset dy="8"/>
<feGaussianBlur stdDeviation="4"/>
<feColorMatrix type="matrix" values="0 0 0 0 0.165418 0 0 0 0 0.165418 0 0 0 0 0.165418 0 0 0 0.0540648 0"/>
<feBlend mode="normal" in2="effect3_dropShadow_5_36" result="effect4_dropShadow_5_36"/>
<feColorMatrix in="SourceAlpha" type="matrix" values="0 0 0 0 0 0 0 0 0 0 0 0 0 0 0 0 0 0 127 0" result="hardAlpha"/>
<feOffset dy="4"/>
<feGaussianBlur stdDeviation="2"/>
<feColorMatrix type="matrix" values="0 0 0 0 0.192071 0 0 0 0 0.192071 0 0 0 0 0.192071 0 0 0 0.0529325 0"/>
<feBlend mode="normal" in2="effect4_dropShadow_5_36" result="effect5_dropShadow_5_36"/>
<feColorMatrix in="SourceAlpha" type="matrix" values="0 0 0 0 0 0 0 0 0 0 0 0 0 0 0 0 0 0 127 0" result="hardAlpha"/>
<feOffset dy="2"/>
<feGaussianBlur stdDeviation="1"/>
<feColorMatrix type="matrix" values="0 0 0 0 0.177801 0 0 0 0 0.177801 0 0 0 0 0.177801 0 0 0 0.0495075 0"/>
<feBlend mode="normal" in2="effect5_dropShadow_5_36" result="effect6_dropShadow_5_36"/>
<feBlend mode="normal" in="SourceGraphic" in2="effect6_dropShadow_5_36" result="shape"/>
</filter>
</defs>
</svg>
