<svg width="222" height="199" viewBox="0 0 222 199" fill="none" xmlns="http://www.w3.org/2000/svg">
<path d="M59.2332 68.1981L80.6892 77.4823L85.2691 44.8282L64.5992 36.161L59.2332 68.1981Z" fill="url(#paint0_linear_22_3)"/>
<path d="M81.6777 26.8321L64.5992 36.1611L85.2691 44.8282L102.348 35.4992L81.6777 26.8321Z" fill="url(#paint1_linear_22_3)"/>
<path d="M80.6892 77.4823L97.7677 68.1507L102.348 35.4992L85.2691 44.8282L80.6892 77.4823Z" fill="url(#paint2_linear_22_3)"/>
<path d="M98.4855 84.0163L119.941 93.3004L127.387 32.5486L106.717 23.8815L98.4855 84.0163Z" fill="url(#paint3_linear_22_3)"/>
<path d="M123.796 14.5525L106.717 23.8815L127.387 32.5486L144.466 23.2196L123.796 14.5525Z" fill="url(#paint4_linear_22_3)"/>
<path d="M119.941 93.3004L137.02 83.9714L144.466 23.2196L127.387 32.5486L119.941 93.3004Z" fill="url(#paint5_linear_22_3)"/>
<path d="M137.738 99.8344L159.194 109.119L172.768 17.9961L152.098 9.32898L137.738 99.8344Z" fill="url(#paint6_linear_22_3)"/>
<path d="M169.176 0L152.098 9.32899L172.768 17.9961L189.846 8.66715L169.176 0Z" fill="url(#paint7_linear_22_3)"/>
<path d="M159.194 109.119L176.272 99.7896L189.846 8.66714L172.768 17.9961L159.194 109.119Z" fill="url(#paint8_linear_22_3)"/>
<path d="M176.99 115.655L198.446 124.937L204.924 76.1349L184.254 67.4677L176.99 115.655Z" fill="url(#paint9_linear_22_3)"/>
<path d="M201.333 58.1387L184.254 67.4677L204.924 76.1349L222 66.8032L201.333 58.1387Z" fill="url(#paint10_linear_22_3)"/>
<path d="M198.446 124.937L215.525 115.608L222 66.8033L204.924 76.1349L198.446 124.937Z" fill="url(#paint11_linear_22_3)"/>
<path d="M67.9145 76.2325L190.511 123.637L125.531 164.824L0.189209 114.424L67.9145 76.2325Z" fill="url(#paint12_linear_22_3)"/>
<path d="M16.6368 111.062L64.9647 83.8106C67.0916 82.6109 69.6418 82.4263 71.916 83.307L175.021 123.175C176.714 123.829 176.94 126.142 175.407 127.112L127.555 157.441C125.952 158.456 123.961 158.64 122.2 157.931L16.9312 115.602C14.9699 114.814 14.7938 112.098 16.6342 111.062H16.6368Z" fill="url(#paint13_linear_22_3)"/>
<path d="M125.531 164.824V198.029L0.189209 147.629V114.424L125.531 164.824Z" fill="url(#paint14_linear_22_3)"/>
<path d="M190.511 123.637V156.842L125.531 198.029V164.824L190.511 123.637Z" fill="url(#paint15_linear_22_3)"/>
<path d="M92.6647 132.043C106.572 132.043 117.846 126.051 117.846 118.659C117.846 111.267 106.572 105.274 92.6647 105.274C78.7574 105.274 67.4833 111.267 67.4833 118.659C67.4833 126.051 78.7574 132.043 92.6647 132.043Z" fill="url(#paint16_linear_22_3)"/>
<path d="M81.6515 122.888L84.2227 121.369C82.5585 120.644 81.2703 119.639 80.8864 118.833L83.2894 118.118C83.7258 118.92 84.7564 119.842 86.3891 120.528C88.4582 121.398 90.898 121.369 92.3492 120.512C93.7505 119.684 93.4797 118.695 92.0889 117.337C90.1355 115.486 89.473 114.023 91.6867 112.715C93.8005 111.468 97.121 111.244 100.184 112.146L102.755 110.627L104.561 111.386L102.093 112.844C103.788 113.609 104.577 114.353 104.99 114.964L102.579 115.65C102.274 115.212 101.638 114.379 99.7764 113.596C97.5338 112.652 95.5173 112.987 94.4998 113.591C93.1748 114.371 93.5928 115.217 95.2097 116.823C97.1394 118.717 97.3287 120.135 95.0625 121.475C93.0512 122.664 89.5676 123.102 86.1314 122.094L83.484 123.658L81.6489 122.885L81.6515 122.888Z" fill="url(#paint17_linear_22_3)"/>
<path opacity="0.35" d="M0.189209 117.316L125.531 167.716V168.354L0.189209 117.955V117.316Z" fill="#A89D9D"/>
<path opacity="0.35" d="M0.189209 121.836L125.531 172.236V172.871L0.189209 122.474V121.836Z" fill="#A89D9D"/>
<path opacity="0.35" d="M0.189209 126.355L125.531 176.752V177.391L0.189209 126.991V126.355Z" fill="#A89D9D"/>
<path opacity="0.35" d="M0.189209 130.872L125.531 181.272V181.91L0.189209 131.51V130.872Z" fill="#A89D9D"/>
<path opacity="0.35" d="M0.189209 135.392L125.531 185.791V186.427L0.189209 136.03V135.392Z" fill="#A89D9D"/>
<path opacity="0.35" d="M0.189209 139.911L125.531 190.308V190.946L0.189209 140.547V139.911Z" fill="#A89D9D"/>
<path opacity="0.35" d="M0.189209 144.428L125.531 194.828V195.463L0.189209 145.066V144.428Z" fill="#A89D9D"/>
<path opacity="0.35" d="M190.511 126.97L125.531 167.716V168.354L190.511 127.608V126.97Z" fill="#A89D9D"/>
<path opacity="0.35" d="M190.511 131.489L125.531 172.236V172.871L190.511 132.125V131.489Z" fill="#A89D9D"/>
<path opacity="0.35" d="M190.511 136.006L125.531 176.752V177.391L190.511 136.644V136.006Z" fill="#A89D9D"/>
<path opacity="0.35" d="M190.511 140.526L125.531 181.272V181.91L190.511 141.161V140.526Z" fill="#A89D9D"/>
<path opacity="0.35" d="M190.511 145.042L125.531 185.791V186.427L190.511 145.68V145.042Z" fill="#A89D9D"/>
<path opacity="0.35" d="M190.511 149.562L125.531 190.308V190.946L190.511 150.2V149.562Z" fill="#A89D9D"/>
<path opacity="0.35" d="M190.511 154.081L125.531 194.828V195.463L190.511 154.717V154.081Z" fill="#A89D9D"/>
<path opacity="0.56" d="M66.4499 86.5261L92.8109 96.4215C92.9858 96.4872 93.0736 96.6806 93.0082 96.8559L92.0912 99.3131C92.0257 99.4884 91.8329 99.5765 91.658 99.5109L65.297 89.6154C65.1222 89.5498 65.0343 89.3564 65.0998 89.181L66.0167 86.7239C66.0822 86.5486 66.2751 86.4605 66.4499 86.5261Z" fill="url(#paint18_linear_22_3)"/>
<path opacity="0.56" d="M100.174 141.189L126.535 151.084C126.71 151.15 126.798 151.343 126.733 151.519L125.816 153.976C125.75 154.151 125.557 154.239 125.382 154.174L99.0214 144.278C98.8466 144.212 98.7588 144.019 98.8242 143.844L99.7412 141.387C99.8066 141.211 99.9995 141.123 100.174 141.189Z" fill="url(#paint19_linear_22_3)"/>
<defs>
<linearGradient id="paint0_linear_22_3" x1="59.2332" y1="56.8203" x2="85.2691" y2="56.8203" gradientUnits="userSpaceOnUse">
<stop stop-color="#FE7F0A"/>
<stop offset="1" stop-color="#FFB538"/>
</linearGradient>
<linearGradient id="paint1_linear_22_3" x1="64.5992" y1="35.8315" x2="102.348" y2="35.8315" gradientUnits="userSpaceOnUse">
<stop stop-color="#FFE8AE"/>
<stop offset="1" stop-color="#FFB538"/>
</linearGradient>
<linearGradient id="paint2_linear_22_3" x1="80.6892" y1="56.4908" x2="102.348" y2="56.4908" gradientUnits="userSpaceOnUse">
<stop stop-color="#FE7F0A"/>
<stop offset="1" stop-color="#AF5700"/>
</linearGradient>
<linearGradient id="paint3_linear_22_3" x1="98.4855" y1="58.5923" x2="127.387" y2="58.5923" gradientUnits="userSpaceOnUse">
<stop stop-color="#FE7F0A"/>
<stop offset="1" stop-color="#FFB538"/>
</linearGradient>
<linearGradient id="paint4_linear_22_3" x1="106.717" y1="23.5492" x2="144.466" y2="23.5492" gradientUnits="userSpaceOnUse">
<stop stop-color="#FFE8AE"/>
<stop offset="1" stop-color="#FFB538"/>
</linearGradient>
<linearGradient id="paint5_linear_22_3" x1="119.941" y1="58.26" x2="144.466" y2="58.26" gradientUnits="userSpaceOnUse">
<stop stop-color="#FE7F0A"/>
<stop offset="1" stop-color="#AF5700"/>
</linearGradient>
<linearGradient id="paint6_linear_22_3" x1="137.738" y1="59.2251" x2="172.768" y2="59.2251" gradientUnits="userSpaceOnUse">
<stop stop-color="#FE7F0A"/>
<stop offset="1" stop-color="#FFB538"/>
</linearGradient>
<linearGradient id="paint7_linear_22_3" x1="152.098" y1="8.99939" x2="189.846" y2="8.99939" gradientUnits="userSpaceOnUse">
<stop stop-color="#FFE8AE"/>
<stop offset="1" stop-color="#FFB538"/>
</linearGradient>
<linearGradient id="paint8_linear_22_3" x1="159.194" y1="58.8929" x2="189.846" y2="58.8929" gradientUnits="userSpaceOnUse">
<stop stop-color="#FE7F0A"/>
<stop offset="1" stop-color="#AF5700"/>
</linearGradient>
<linearGradient id="paint9_linear_22_3" x1="176.99" y1="96.2035" x2="204.924" y2="96.2035" gradientUnits="userSpaceOnUse">
<stop stop-color="#FE7F0A"/>
<stop offset="1" stop-color="#FFB538"/>
</linearGradient>
<linearGradient id="paint10_linear_22_3" x1="184.254" y1="67.1355" x2="222" y2="67.1355" gradientUnits="userSpaceOnUse">
<stop stop-color="#FFE8AE"/>
<stop offset="1" stop-color="#FFB538"/>
</linearGradient>
<linearGradient id="paint11_linear_22_3" x1="198.446" y1="95.8713" x2="222" y2="95.8713" gradientUnits="userSpaceOnUse">
<stop stop-color="#FE7F0A"/>
<stop offset="1" stop-color="#AF5700"/>
</linearGradient>
<linearGradient id="paint12_linear_22_3" x1="38.1059" y1="82.2971" x2="145.257" y2="150.653" gradientUnits="userSpaceOnUse">
<stop stop-color="#F8F8F8"/>
<stop offset="1" stop-color="white"/>
</linearGradient>
<linearGradient id="paint13_linear_22_3" x1="96.7845" y1="98.9986" x2="95.2375" y2="134.089" gradientUnits="userSpaceOnUse">
<stop stop-color="#70ED85"/>
<stop offset="1" stop-color="#0BA2B3"/>
</linearGradient>
<linearGradient id="paint14_linear_22_3" x1="63.8657" y1="133.264" x2="62.2155" y2="170.708" gradientUnits="userSpaceOnUse">
<stop stop-color="#F7F7F7"/>
<stop offset="1" stop-color="#CBCBCB"/>
</linearGradient>
<linearGradient id="paint15_linear_22_3" x1="129.319" y1="157.069" x2="179.585" y2="163.62" gradientUnits="userSpaceOnUse">
<stop stop-color="#F7F7F7"/>
<stop offset="1" stop-color="#CBCBCB"/>
</linearGradient>
<linearGradient id="paint16_linear_22_3" x1="77.1452" y1="108.699" x2="106.196" y2="127.233" gradientUnits="userSpaceOnUse">
<stop stop-color="#F7F7F7"/>
<stop offset="1" stop-color="white"/>
</linearGradient>
<linearGradient id="paint17_linear_22_3" x1="80.889" y1="117.145" x2="104.99" y2="117.145" gradientUnits="userSpaceOnUse">
<stop stop-color="#82FB7C"/>
<stop offset="1" stop-color="#0BA2B3"/>
</linearGradient>
<linearGradient id="paint18_linear_22_3" x1="72.6653" y1="84.5094" x2="84.5994" y2="100.375" gradientUnits="userSpaceOnUse">
<stop stop-color="#F7F7F7"/>
<stop offset="1" stop-color="white"/>
</linearGradient>
<linearGradient id="paint19_linear_22_3" x1="106.388" y1="139.169" x2="118.322" y2="155.034" gradientUnits="userSpaceOnUse">
<stop stop-color="#F7F7F7"/>
<stop offset="1" stop-color="white"/>
</linearGradient>
</defs>
</svg>
