<svg width="203" height="165" viewBox="0 0 203 165" fill="none" xmlns="http://www.w3.org/2000/svg">
<g clip-path="url(#clip0_14_692)">
<path d="M63.5354 120.693C78.2616 108.935 81.6673 88.5636 71.1421 75.1925C60.6169 61.8213 40.1466 60.5137 25.4204 72.2719C10.6941 84.03 7.28846 104.401 17.8136 117.773C28.3388 131.144 48.8091 132.451 63.5354 120.693Z" fill="url(#paint0_linear_14_692)"/>
<path d="M69.4429 104.637C69.083 105.42 68.6964 106.188 68.2811 106.932C63.0519 116.501 53.851 123.112 43.8798 125.333C37.9151 126.663 31.6715 126.43 25.8321 124.314C9.45598 118.388 2.42234 99.9781 10.1356 83.1792C10.3157 82.7831 10.5021 82.3983 10.7039 82.0176C11.5636 80.2913 12.5595 78.6611 13.6639 77.1242C17.4961 71.7856 22.6421 67.6239 28.3839 64.9744C36.3508 61.2903 45.4567 60.5124 53.754 63.5095C66.5501 68.1436 73.6329 80.3964 72.4419 93.5459C72.1146 97.2263 71.1256 100.974 69.4461 104.643L69.4429 104.637Z" fill="url(#paint1_linear_14_692)"/>
<path d="M39.1503 120.593C35.4733 120.865 31.7478 120.415 28.205 119.133C14.6115 114.217 8.78277 98.93 15.1803 84.9949C16.0018 83.2015 16.9865 81.5257 18.1013 79.9679C24.0397 71.7004 33.7809 66.8335 43.4094 67.153C34.7925 67.8077 26.4006 72.4888 21.0855 79.903C19.962 81.4584 18.9821 83.1426 18.1557 84.9276C11.758 98.8722 17.593 114.154 31.1892 119.069C33.7769 120.008 36.4633 120.497 39.1509 120.591L39.1503 120.593Z" fill="url(#paint2_linear_14_692)"/>
<path d="M64.408 102.803C59.6791 113.118 49.5877 119.79 39.1503 120.593C36.4627 120.499 33.7763 120.01 31.1886 119.071C17.5952 114.154 11.758 98.8721 18.1551 84.9298C18.9815 83.1448 19.9614 81.4606 21.0849 79.9052C26.4022 72.4916 34.7919 67.8099 43.4088 67.1552C46.1071 67.2353 48.7935 67.7239 51.3811 68.6636C62.0079 72.5044 67.8867 82.6803 66.8928 93.5929C66.6223 96.6475 65.8036 99.7571 64.408 102.803Z" fill="url(#paint3_linear_14_692)"/>
<path opacity="0.15" d="M69.4429 104.637C69.083 105.42 68.6964 106.188 68.2812 106.932C63.1673 107.835 57.6724 107.639 52.2014 106.157C34.1099 101.258 22.9936 84.1675 27.3747 67.9898C27.6553 66.9538 27.9947 65.9432 28.3801 64.971C36.347 61.2869 45.4529 60.5091 53.7503 63.5061C66.5464 68.1402 73.6291 80.393 72.4381 93.5425C72.1108 97.2229 71.1219 100.97 69.4423 104.639L69.4429 104.637Z" fill="#FEFEFE"/>
<path d="M159.712 119.85C180.781 111.556 190.548 85.8662 181.525 62.4699C172.502 39.0736 148.108 26.8305 127.038 35.1242C105.968 43.4178 96.2022 69.1076 105.225 92.5039C114.247 115.9 138.642 128.143 159.712 119.85Z" fill="url(#paint4_linear_14_692)"/>
<path d="M109.224 70.0967C109.111 71.237 109.041 72.3798 109.018 73.5118C108.601 88.0184 114.731 101.788 124.697 111.035C130.656 116.57 137.986 120.493 146.116 121.982C168.909 126.172 189.35 109.742 191.769 85.2675C191.826 84.6915 191.872 84.1242 191.898 83.5515C192.07 80.9908 192.019 78.4477 191.783 75.9423C190.968 67.2346 187.85 58.9988 183.032 52.0983C176.353 42.5151 166.412 35.5097 154.866 33.3791C137.055 30.1099 120.69 39.4319 113.231 55.3366C111.134 59.7846 109.757 64.7543 109.222 70.0961L109.224 70.0967Z" fill="url(#paint5_linear_14_692)"/>
<path d="M133.309 108.768C137.35 111.549 141.933 113.534 146.861 114.442C165.781 117.924 182.74 104.272 184.748 83.9671C185.009 81.3548 185.002 78.7692 184.767 76.2306C183.495 62.7455 175.572 50.6129 164.297 44.5168C173.757 51.0535 180.254 62.0666 181.383 74.1548C181.629 76.6964 181.622 79.29 181.375 81.8943C179.363 102.211 162.397 115.846 143.477 112.367C139.872 111.707 136.459 110.466 133.308 108.77L133.309 108.768Z" fill="url(#paint6_linear_14_692)"/>
<path d="M116.238 71.3715C114.746 86.3961 121.858 100.838 133.311 108.769C136.46 110.464 139.874 111.708 143.48 112.365C162.399 115.847 179.364 102.208 181.378 81.8927C181.627 79.289 181.632 76.6948 181.385 74.1532C180.257 62.065 173.76 51.0519 164.3 44.5152C161.146 42.7952 157.731 41.5533 154.128 40.8945C139.341 38.1725 125.754 45.9137 119.568 59.1183C117.829 62.8091 116.68 66.9317 116.239 71.3671L116.238 71.3715Z" fill="url(#paint7_linear_14_692)"/>
<path opacity="0.15" d="M109.224 70.0967C109.111 71.237 109.041 72.3798 109.018 73.5118C114.286 77.9833 120.73 81.4463 128.011 83.418C152.086 89.9377 176.329 77.7667 182.159 56.2414C182.532 54.8637 182.821 53.475 183.032 52.0983C176.353 42.5151 166.412 35.5097 154.866 33.3791C137.055 30.1099 120.69 39.4319 113.231 55.3366C111.134 59.7846 109.757 64.7543 109.222 70.0961L109.224 70.0967Z" fill="#FEFEFE"/>
</g>
<defs>
<linearGradient id="paint0_linear_14_692" x1="34.8733" y1="102.902" x2="66.9287" y2="81.8099" gradientUnits="userSpaceOnUse">
<stop stop-color="#FFCE78"/>
<stop offset="0.4" stop-color="#CC9A50"/>
<stop offset="0.68" stop-color="#FFD381"/>
<stop offset="0.84" stop-color="#AF7C39"/>
<stop offset="1" stop-color="#A06C2D"/>
</linearGradient>
<linearGradient id="paint1_linear_14_692" x1="70.2401" y1="78.058" x2="10.0317" y2="108.847" gradientUnits="userSpaceOnUse">
<stop stop-color="#FFCE78"/>
<stop offset="1" stop-color="#FFEFAE"/>
</linearGradient>
<linearGradient id="paint2_linear_14_692" x1="53.1314" y1="85.6452" x2="14.4929" y2="105.401" gradientUnits="userSpaceOnUse">
<stop stop-color="#FFCE78"/>
<stop offset="0.4" stop-color="#CC9A50"/>
<stop offset="0.68" stop-color="#FFD381"/>
<stop offset="0.84" stop-color="#AF7C39"/>
<stop offset="1" stop-color="#A06C2D"/>
</linearGradient>
<linearGradient id="paint3_linear_14_692" x1="66.8412" y1="87.5125" x2="15.6499" y2="99.9159" gradientUnits="userSpaceOnUse">
<stop stop-color="#FFCE78"/>
<stop offset="1" stop-color="#D8A16F"/>
</linearGradient>
<linearGradient id="paint4_linear_14_692" x1="150.082" y1="91.3823" x2="127.419" y2="45.6278" gradientUnits="userSpaceOnUse">
<stop stop-color="#FFCE78"/>
<stop offset="0.4" stop-color="#CC9A50"/>
<stop offset="0.68" stop-color="#FFD381"/>
<stop offset="0.84" stop-color="#AF7C39"/>
<stop offset="1" stop-color="#A06C2D"/>
</linearGradient>
<linearGradient id="paint5_linear_14_692" x1="126.151" y1="39.0272" x2="174.648" y2="114.825" gradientUnits="userSpaceOnUse">
<stop stop-color="#FFCE78"/>
<stop offset="1" stop-color="#FFEFAE"/>
</linearGradient>
<linearGradient id="paint6_linear_14_692" x1="140.713" y1="59.2323" x2="171.833" y2="107.872" gradientUnits="userSpaceOnUse">
<stop stop-color="#FFCE78"/>
<stop offset="0.4" stop-color="#CC9A50"/>
<stop offset="0.68" stop-color="#FFD381"/>
<stop offset="0.84" stop-color="#AF7C39"/>
<stop offset="1" stop-color="#A06C2D"/>
</linearGradient>
<linearGradient id="paint7_linear_14_692" x1="123.707" y1="52.1711" x2="174.191" y2="100.795" gradientUnits="userSpaceOnUse">
<stop stop-color="#FFCE78"/>
<stop offset="1" stop-color="#D8A16F"/>
</linearGradient>
<clipPath id="clip0_14_692">
<rect width="177" height="123" fill="white" transform="translate(32.1528 0.00488281) rotate(15.1529)"/>
</clipPath>
</defs>
</svg>
